<svg width="834" height="1112" viewBox="0 0 834 1112" fill="none" xmlns="http://www.w3.org/2000/svg">
<g clip-path="url(#clip0)">
<rect width="834" height="1112" transform="matrix(-1 0 0 1 834 0)" fill="white"/>
<rect x="14" y="18" width="806" height="1076" fill="white"/>
<rect x="2.5" y="2.5" width="829" height="1107" stroke="#DF4B6F" stroke-width="5"/>
<rect x="152" y="678" width="523" height="97" rx="48.5" fill="#DF4B6F"/>
<rect x="153.5" y="850.5" width="520" height="94" rx="47" stroke="#DF4B6F" stroke-width="3"/>
<path d="M253.107 910.252C251.355 910.252 249.771 909.952 248.355 909.352C246.963 908.752 245.859 907.888 245.043 906.76C244.227 905.632 243.807 904.3 243.783 902.764H249.183C249.255 903.796 249.615 904.612 250.263 905.212C250.935 905.812 251.847 906.112 252.999 906.112C254.175 906.112 255.099 905.836 255.771 905.284C256.443 904.708 256.779 903.964 256.779 903.052C256.779 902.308 256.551 901.696 256.095 901.216C255.639 900.736 255.063 900.364 254.367 900.1C253.695 899.812 252.759 899.5 251.559 899.164C249.927 898.684 248.595 898.216 247.563 897.76C246.555 897.28 245.679 896.572 244.935 895.636C244.215 894.676 243.855 893.404 243.855 891.82C243.855 890.332 244.227 889.036 244.971 887.932C245.715 886.828 246.759 885.988 248.103 885.412C249.447 884.812 250.983 884.512 252.711 884.512C255.303 884.512 257.403 885.148 259.011 886.42C260.643 887.668 261.543 889.42 261.711 891.676H256.167C256.119 890.812 255.747 890.104 255.051 889.552C254.379 888.976 253.479 888.688 252.351 888.688C251.367 888.688 250.575 888.94 249.975 889.444C249.399 889.948 249.111 890.68 249.111 891.64C249.111 892.312 249.327 892.876 249.759 893.332C250.215 893.764 250.767 894.124 251.415 894.412C252.087 894.676 253.023 894.988 254.223 895.348C255.855 895.828 257.187 896.308 258.219 896.788C259.251 897.268 260.139 897.988 260.883 898.948C261.627 899.908 261.999 901.168 261.999 902.728C261.999 904.072 261.651 905.32 260.955 906.472C260.259 907.624 259.239 908.548 257.895 909.244C256.551 909.916 254.955 910.252 253.107 910.252ZM279.473 910.252C277.121 910.252 274.961 909.7 272.993 908.596C271.025 907.492 269.465 905.968 268.313 904.024C267.161 902.056 266.585 899.836 266.585 897.364C266.585 894.916 267.161 892.72 268.313 890.776C269.465 888.808 271.025 887.272 272.993 886.168C274.961 885.064 277.121 884.512 279.473 884.512C281.849 884.512 284.009 885.064 285.953 886.168C287.921 887.272 289.469 888.808 290.597 890.776C291.749 892.72 292.325 894.916 292.325 897.364C292.325 899.836 291.749 902.056 290.597 904.024C289.469 905.968 287.921 907.492 285.953 908.596C283.985 909.7 281.825 910.252 279.473 910.252ZM279.473 905.752C280.985 905.752 282.317 905.416 283.469 904.744C284.621 904.048 285.521 903.064 286.169 901.792C286.817 900.52 287.141 899.044 287.141 897.364C287.141 895.684 286.817 894.22 286.169 892.972C285.521 891.7 284.621 890.728 283.469 890.056C282.317 889.384 280.985 889.048 279.473 889.048C277.961 889.048 276.617 889.384 275.441 890.056C274.289 890.728 273.389 891.7 272.741 892.972C272.093 894.22 271.769 895.684 271.769 897.364C271.769 899.044 272.093 900.52 272.741 901.792C273.389 903.064 274.289 904.048 275.441 904.744C276.617 905.416 277.961 905.752 279.473 905.752ZM311.77 897.112C313.186 897.376 314.35 898.084 315.262 899.236C316.174 900.388 316.63 901.708 316.63 903.196C316.63 904.54 316.294 905.728 315.622 906.76C314.974 907.768 314.026 908.56 312.778 909.136C311.53 909.712 310.054 910 308.35 910H297.514V884.872H307.882C309.586 884.872 311.05 885.148 312.274 885.7C313.522 886.252 314.458 887.02 315.082 888.004C315.73 888.988 316.054 890.104 316.054 891.352C316.054 892.816 315.658 894.04 314.866 895.024C314.098 896.008 313.066 896.704 311.77 897.112ZM302.554 895.24H307.162C308.362 895.24 309.286 894.976 309.934 894.448C310.582 893.896 310.906 893.116 310.906 892.108C310.906 891.1 310.582 890.32 309.934 889.768C309.286 889.216 308.362 888.94 307.162 888.94H302.554V895.24ZM307.63 905.896C308.854 905.896 309.802 905.608 310.474 905.032C311.17 904.456 311.518 903.64 311.518 902.584C311.518 901.504 311.158 900.664 310.438 900.064C309.718 899.44 308.746 899.128 307.522 899.128H302.554V905.896H307.63ZM335.047 910L329.503 900.208H327.127V910H322.087V884.872H331.519C333.463 884.872 335.119 885.22 336.487 885.916C337.855 886.588 338.875 887.512 339.547 888.688C340.243 889.84 340.591 891.136 340.591 892.576C340.591 894.232 340.111 895.732 339.151 897.076C338.191 898.396 336.763 899.308 334.867 899.812L340.879 910H335.047ZM327.127 896.428H331.339C332.707 896.428 333.727 896.104 334.399 895.456C335.071 894.784 335.407 893.86 335.407 892.684C335.407 891.532 335.071 890.644 334.399 890.02C333.727 889.372 332.707 889.048 331.339 889.048H327.127V896.428ZM351.63 888.94V895.24H360.09V899.236H351.63V905.896H361.17V910H346.59V884.836H361.17V888.94H351.63ZM388.872 910.252C386.52 910.252 384.36 909.7 382.392 908.596C380.424 907.492 378.864 905.968 377.712 904.024C376.56 902.056 375.984 899.836 375.984 897.364C375.984 894.916 376.56 892.72 377.712 890.776C378.864 888.808 380.424 887.272 382.392 886.168C384.36 885.064 386.52 884.512 388.872 884.512C391.248 884.512 393.408 885.064 395.352 886.168C397.32 887.272 398.868 888.808 399.996 890.776C401.148 892.72 401.724 894.916 401.724 897.364C401.724 899.836 401.148 902.056 399.996 904.024C398.868 905.968 397.32 907.492 395.352 908.596C393.384 909.7 391.224 910.252 388.872 910.252ZM388.872 905.752C390.384 905.752 391.716 905.416 392.868 904.744C394.02 904.048 394.92 903.064 395.568 901.792C396.216 900.52 396.54 899.044 396.54 897.364C396.54 895.684 396.216 894.22 395.568 892.972C394.92 891.7 394.02 890.728 392.868 890.056C391.716 889.384 390.384 889.048 388.872 889.048C387.36 889.048 386.016 889.384 384.84 890.056C383.688 890.728 382.788 891.7 382.14 892.972C381.492 894.22 381.168 895.684 381.168 897.364C381.168 899.044 381.492 900.52 382.14 901.792C382.788 903.064 383.688 904.048 384.84 904.744C386.016 905.416 387.36 905.752 388.872 905.752ZM435.256 892.648C435.256 893.992 434.932 895.252 434.284 896.428C433.66 897.604 432.664 898.552 431.296 899.272C429.952 899.992 428.248 900.352 426.184 900.352H421.972V910H416.932V884.872H426.184C428.128 884.872 429.784 885.208 431.152 885.88C432.52 886.552 433.54 887.476 434.212 888.652C434.908 889.828 435.256 891.16 435.256 892.648ZM425.968 896.284C427.36 896.284 428.392 895.972 429.064 895.348C429.736 894.7 430.072 893.8 430.072 892.648C430.072 890.2 428.704 888.976 425.968 888.976H421.972V896.284H425.968ZM453.234 910L447.69 900.208H445.314V910H440.274V884.872H449.706C451.65 884.872 453.306 885.22 454.674 885.916C456.042 886.588 457.062 887.512 457.734 888.688C458.43 889.84 458.778 891.136 458.778 892.576C458.778 894.232 458.298 895.732 457.338 897.076C456.378 898.396 454.95 899.308 453.054 899.812L459.066 910H453.234ZM445.314 896.428H449.526C450.894 896.428 451.914 896.104 452.586 895.456C453.258 894.784 453.594 893.86 453.594 892.684C453.594 891.532 453.258 890.644 452.586 890.02C451.914 889.372 450.894 889.048 449.526 889.048H445.314V896.428ZM476.441 910.252C474.089 910.252 471.929 909.7 469.961 908.596C467.993 907.492 466.433 905.968 465.281 904.024C464.129 902.056 463.553 899.836 463.553 897.364C463.553 894.916 464.129 892.72 465.281 890.776C466.433 888.808 467.993 887.272 469.961 886.168C471.929 885.064 474.089 884.512 476.441 884.512C478.817 884.512 480.977 885.064 482.921 886.168C484.889 887.272 486.437 888.808 487.565 890.776C488.717 892.72 489.293 894.916 489.293 897.364C489.293 899.836 488.717 902.056 487.565 904.024C486.437 905.968 484.889 907.492 482.921 908.596C480.953 909.7 478.793 910.252 476.441 910.252ZM476.441 905.752C477.953 905.752 479.285 905.416 480.437 904.744C481.589 904.048 482.489 903.064 483.137 901.792C483.785 900.52 484.109 899.044 484.109 897.364C484.109 895.684 483.785 894.22 483.137 892.972C482.489 891.7 481.589 890.728 480.437 890.056C479.285 889.384 477.953 889.048 476.441 889.048C474.929 889.048 473.585 889.384 472.409 890.056C471.257 890.728 470.357 891.7 469.709 892.972C469.061 894.22 468.737 895.684 468.737 897.364C468.737 899.044 469.061 900.52 469.709 901.792C470.357 903.064 471.257 904.048 472.409 904.744C473.585 905.416 474.929 905.752 476.441 905.752ZM509.134 884.872V902.512C509.134 904.96 508.426 906.868 507.01 908.236C505.594 909.58 503.698 910.252 501.322 910.252C498.922 910.252 496.978 909.556 495.49 908.164C494.026 906.772 493.294 904.828 493.294 902.332H498.334C498.358 903.412 498.61 904.252 499.09 904.852C499.594 905.452 500.314 905.752 501.25 905.752C502.162 905.752 502.858 905.464 503.338 904.888C503.818 904.312 504.058 903.52 504.058 902.512V884.872H509.134ZM521.494 888.94V895.24H529.954V899.236H521.494V905.896H531.034V910H516.454V884.836H531.034V888.94H521.494ZM554.154 884.872V888.94H547.458V910H542.418V888.94H535.722V884.872H554.154ZM570.935 910.252C568.583 910.252 566.423 909.7 564.455 908.596C562.487 907.492 560.927 905.968 559.775 904.024C558.623 902.056 558.047 899.836 558.047 897.364C558.047 894.916 558.623 892.72 559.775 890.776C560.927 888.808 562.487 887.272 564.455 886.168C566.423 885.064 568.583 884.512 570.935 884.512C573.311 884.512 575.471 885.064 577.415 886.168C579.383 887.272 580.931 888.808 582.059 890.776C583.211 892.72 583.787 894.916 583.787 897.364C583.787 899.836 583.211 902.056 582.059 904.024C580.931 905.968 579.383 907.492 577.415 908.596C575.447 909.7 573.287 910.252 570.935 910.252ZM570.935 905.752C572.447 905.752 573.779 905.416 574.931 904.744C576.083 904.048 576.983 903.064 577.631 901.792C578.279 900.52 578.603 899.044 578.603 897.364C578.603 895.684 578.279 894.22 577.631 892.972C576.983 891.7 576.083 890.728 574.931 890.056C573.779 889.384 572.447 889.048 570.935 889.048C569.423 889.048 568.079 889.384 566.903 890.056C565.751 890.728 564.851 891.7 564.203 892.972C563.555 894.22 563.231 895.684 563.231 897.364C563.231 899.044 563.555 900.52 564.203 901.792C564.851 903.064 565.751 904.048 566.903 904.744C568.079 905.416 569.423 905.752 570.935 905.752Z" fill="#DF4B6F"/>
<path d="M282.039 739.252C280.287 739.252 278.703 738.952 277.287 738.352C275.895 737.752 274.791 736.888 273.975 735.76C273.159 734.632 272.739 733.3 272.715 731.764H278.115C278.187 732.796 278.547 733.612 279.195 734.212C279.867 734.812 280.779 735.112 281.931 735.112C283.107 735.112 284.031 734.836 284.703 734.284C285.375 733.708 285.711 732.964 285.711 732.052C285.711 731.308 285.483 730.696 285.027 730.216C284.571 729.736 283.995 729.364 283.299 729.1C282.627 728.812 281.691 728.5 280.491 728.164C278.859 727.684 277.527 727.216 276.495 726.76C275.487 726.28 274.611 725.572 273.867 724.636C273.147 723.676 272.787 722.404 272.787 720.82C272.787 719.332 273.159 718.036 273.903 716.932C274.647 715.828 275.691 714.988 277.035 714.412C278.379 713.812 279.915 713.512 281.643 713.512C284.235 713.512 286.335 714.148 287.943 715.42C289.575 716.668 290.475 718.42 290.643 720.676H285.099C285.051 719.812 284.679 719.104 283.983 718.552C283.311 717.976 282.411 717.688 281.283 717.688C280.299 717.688 279.507 717.94 278.907 718.444C278.331 718.948 278.043 719.68 278.043 720.64C278.043 721.312 278.259 721.876 278.691 722.332C279.147 722.764 279.699 723.124 280.347 723.412C281.019 723.676 281.955 723.988 283.155 724.348C284.787 724.828 286.119 725.308 287.151 725.788C288.183 726.268 289.071 726.988 289.815 727.948C290.559 728.908 290.931 730.168 290.931 731.728C290.931 733.072 290.583 734.32 289.887 735.472C289.191 736.624 288.171 737.548 286.827 738.244C285.483 738.916 283.887 739.252 282.039 739.252ZM308.404 739.252C306.052 739.252 303.892 738.7 301.924 737.596C299.956 736.492 298.396 734.968 297.244 733.024C296.092 731.056 295.516 728.836 295.516 726.364C295.516 723.916 296.092 721.72 297.244 719.776C298.396 717.808 299.956 716.272 301.924 715.168C303.892 714.064 306.052 713.512 308.404 713.512C310.78 713.512 312.94 714.064 314.884 715.168C316.852 716.272 318.4 717.808 319.528 719.776C320.68 721.72 321.256 723.916 321.256 726.364C321.256 728.836 320.68 731.056 319.528 733.024C318.4 734.968 316.852 736.492 314.884 737.596C312.916 738.7 310.756 739.252 308.404 739.252ZM308.404 734.752C309.916 734.752 311.248 734.416 312.4 733.744C313.552 733.048 314.452 732.064 315.1 730.792C315.748 729.52 316.072 728.044 316.072 726.364C316.072 724.684 315.748 723.22 315.1 721.972C314.452 720.7 313.552 719.728 312.4 719.056C311.248 718.384 309.916 718.048 308.404 718.048C306.892 718.048 305.548 718.384 304.372 719.056C303.22 719.728 302.32 720.7 301.672 721.972C301.024 723.22 300.7 724.684 300.7 726.364C300.7 728.044 301.024 729.52 301.672 730.792C302.32 732.064 303.22 733.048 304.372 733.744C305.548 734.416 306.892 734.752 308.404 734.752ZM341.962 713.872V717.94H331.486V724.384H339.514V728.38H331.486V739H326.446V713.872H341.962ZM359.936 739L354.392 729.208H352.016V739H346.976V713.872H356.408C358.352 713.872 360.008 714.22 361.376 714.916C362.744 715.588 363.764 716.512 364.436 717.688C365.132 718.84 365.48 720.136 365.48 721.576C365.48 723.232 365 724.732 364.04 726.076C363.08 727.396 361.652 728.308 359.756 728.812L365.768 739H359.936ZM352.016 725.428H356.228C357.596 725.428 358.616 725.104 359.288 724.456C359.96 723.784 360.296 722.86 360.296 721.684C360.296 720.532 359.96 719.644 359.288 719.02C358.616 718.372 357.596 718.048 356.228 718.048H352.016V725.428ZM376.518 717.94V724.24H384.978V728.236H376.518V734.896H386.058V739H371.478V713.836H386.058V717.94H376.518ZM397.046 713.872V729.424C397.046 731.128 397.49 732.436 398.378 733.348C399.266 734.236 400.514 734.68 402.122 734.68C403.754 734.68 405.014 734.236 405.902 733.348C406.79 732.436 407.234 731.128 407.234 729.424V713.872H412.31V729.388C412.31 731.524 411.842 733.336 410.906 734.824C409.994 736.288 408.758 737.392 407.198 738.136C405.662 738.88 403.946 739.252 402.05 739.252C400.178 739.252 398.474 738.88 396.938 738.136C395.426 737.392 394.226 736.288 393.338 734.824C392.45 733.336 392.006 731.524 392.006 729.388V713.872H397.046ZM444.046 734.212H434.038L432.382 739H427.09L436.126 713.836H441.994L451.03 739H445.702L444.046 734.212ZM442.678 730.18L439.042 719.668L435.406 730.18H442.678ZM470.104 726.112C471.52 726.376 472.684 727.084 473.596 728.236C474.508 729.388 474.964 730.708 474.964 732.196C474.964 733.54 474.628 734.728 473.956 735.76C473.308 736.768 472.36 737.56 471.112 738.136C469.864 738.712 468.388 739 466.684 739H455.848V713.872H466.216C467.92 713.872 469.384 714.148 470.608 714.7C471.856 715.252 472.792 716.02 473.416 717.004C474.064 717.988 474.388 719.104 474.388 720.352C474.388 721.816 473.992 723.04 473.2 724.024C472.432 725.008 471.4 725.704 470.104 726.112ZM460.888 724.24H465.496C466.696 724.24 467.62 723.976 468.268 723.448C468.916 722.896 469.24 722.116 469.24 721.108C469.24 720.1 468.916 719.32 468.268 718.768C467.62 718.216 466.696 717.94 465.496 717.94H460.888V724.24ZM465.964 734.896C467.188 734.896 468.136 734.608 468.808 734.032C469.504 733.456 469.852 732.64 469.852 731.584C469.852 730.504 469.492 729.664 468.772 729.064C468.052 728.44 467.08 728.128 465.856 728.128H460.888V734.896H465.964ZM485.388 713.872V729.424C485.388 731.128 485.832 732.436 486.72 733.348C487.608 734.236 488.856 734.68 490.464 734.68C492.096 734.68 493.356 734.236 494.244 733.348C495.132 732.436 495.576 731.128 495.576 729.424V713.872H500.652V729.388C500.652 731.524 500.184 733.336 499.248 734.824C498.336 736.288 497.1 737.392 495.54 738.136C494.004 738.88 492.288 739.252 490.392 739.252C488.52 739.252 486.816 738.88 485.28 738.136C483.768 737.392 482.568 736.288 481.68 734.824C480.792 733.336 480.348 731.524 480.348 729.388V713.872H485.388ZM515.638 739.252C513.886 739.252 512.302 738.952 510.886 738.352C509.494 737.752 508.39 736.888 507.574 735.76C506.758 734.632 506.338 733.3 506.314 731.764H511.714C511.786 732.796 512.146 733.612 512.794 734.212C513.466 734.812 514.378 735.112 515.53 735.112C516.706 735.112 517.63 734.836 518.302 734.284C518.974 733.708 519.31 732.964 519.31 732.052C519.31 731.308 519.082 730.696 518.626 730.216C518.17 729.736 517.594 729.364 516.898 729.1C516.226 728.812 515.29 728.5 514.09 728.164C512.458 727.684 511.126 727.216 510.094 726.76C509.086 726.28 508.21 725.572 507.466 724.636C506.746 723.676 506.386 722.404 506.386 720.82C506.386 719.332 506.758 718.036 507.502 716.932C508.246 715.828 509.29 714.988 510.634 714.412C511.978 713.812 513.514 713.512 515.242 713.512C517.834 713.512 519.934 714.148 521.542 715.42C523.174 716.668 524.074 718.42 524.242 720.676H518.698C518.65 719.812 518.278 719.104 517.582 718.552C516.91 717.976 516.01 717.688 514.882 717.688C513.898 717.688 513.106 717.94 512.506 718.444C511.93 718.948 511.642 719.68 511.642 720.64C511.642 721.312 511.858 721.876 512.29 722.332C512.746 722.764 513.298 723.124 513.946 723.412C514.618 723.676 515.554 723.988 516.754 724.348C518.386 724.828 519.718 725.308 520.75 725.788C521.782 726.268 522.67 726.988 523.414 727.948C524.158 728.908 524.53 730.168 524.53 731.728C524.53 733.072 524.182 734.32 523.486 735.472C522.79 736.624 521.77 737.548 520.426 738.244C519.082 738.916 517.486 739.252 515.638 739.252ZM542.004 739.252C539.652 739.252 537.492 738.7 535.524 737.596C533.556 736.492 531.996 734.968 530.844 733.024C529.692 731.056 529.116 728.836 529.116 726.364C529.116 723.916 529.692 721.72 530.844 719.776C531.996 717.808 533.556 716.272 535.524 715.168C537.492 714.064 539.652 713.512 542.004 713.512C544.38 713.512 546.54 714.064 548.484 715.168C550.452 716.272 552 717.808 553.128 719.776C554.28 721.72 554.856 723.916 554.856 726.364C554.856 728.836 554.28 731.056 553.128 733.024C552 734.968 550.452 736.492 548.484 737.596C546.516 738.7 544.356 739.252 542.004 739.252ZM542.004 734.752C543.516 734.752 544.848 734.416 546 733.744C547.152 733.048 548.052 732.064 548.7 730.792C549.348 729.52 549.672 728.044 549.672 726.364C549.672 724.684 549.348 723.22 548.7 721.972C548.052 720.7 547.152 719.728 546 719.056C544.848 718.384 543.516 718.048 542.004 718.048C540.492 718.048 539.148 718.384 537.972 719.056C536.82 719.728 535.92 720.7 535.272 721.972C534.624 723.22 534.3 724.684 534.3 726.364C534.3 728.044 534.624 729.52 535.272 730.792C535.92 732.064 536.82 733.048 537.972 733.744C539.148 734.416 540.492 734.752 542.004 734.752Z" fill="white"/>
<path d="M116.561 47.252C114.809 47.252 113.225 46.952 111.809 46.352C110.417 45.752 109.313 44.888 108.497 43.76C107.681 42.632 107.261 41.3 107.237 39.764H112.637C112.709 40.796 113.069 41.612 113.717 42.212C114.389 42.812 115.301 43.112 116.453 43.112C117.629 43.112 118.553 42.836 119.225 42.284C119.897 41.708 120.233 40.964 120.233 40.052C120.233 39.308 120.005 38.696 119.549 38.216C119.093 37.736 118.517 37.364 117.821 37.1C117.149 36.812 116.213 36.5 115.013 36.164C113.381 35.684 112.049 35.216 111.017 34.76C110.009 34.28 109.133 33.572 108.389 32.636C107.669 31.676 107.309 30.404 107.309 28.82C107.309 27.332 107.681 26.036 108.425 24.932C109.169 23.828 110.213 22.988 111.557 22.412C112.901 21.812 114.437 21.512 116.165 21.512C118.757 21.512 120.857 22.148 122.465 23.42C124.097 24.668 124.997 26.42 125.165 28.676H119.621C119.573 27.812 119.201 27.104 118.505 26.552C117.833 25.976 116.933 25.688 115.805 25.688C114.821 25.688 114.029 25.94 113.429 26.444C112.853 26.948 112.565 27.68 112.565 28.64C112.565 29.312 112.781 29.876 113.213 30.332C113.669 30.764 114.221 31.124 114.869 31.412C115.541 31.676 116.477 31.988 117.677 32.348C119.309 32.828 120.641 33.308 121.673 33.788C122.705 34.268 123.593 34.988 124.337 35.948C125.081 36.908 125.453 38.168 125.453 39.728C125.453 41.072 125.105 42.32 124.409 43.472C123.713 44.624 122.693 45.548 121.349 46.244C120.005 46.916 118.409 47.252 116.561 47.252ZM136.303 21.872V47H131.263V21.872H136.303ZM151.398 47.252C149.646 47.252 148.062 46.952 146.646 46.352C145.254 45.752 144.15 44.888 143.334 43.76C142.518 42.632 142.098 41.3 142.074 39.764H147.474C147.546 40.796 147.906 41.612 148.554 42.212C149.226 42.812 150.138 43.112 151.29 43.112C152.466 43.112 153.39 42.836 154.062 42.284C154.734 41.708 155.07 40.964 155.07 40.052C155.07 39.308 154.842 38.696 154.386 38.216C153.93 37.736 153.354 37.364 152.658 37.1C151.986 36.812 151.05 36.5 149.85 36.164C148.218 35.684 146.886 35.216 145.854 34.76C144.846 34.28 143.97 33.572 143.226 32.636C142.506 31.676 142.146 30.404 142.146 28.82C142.146 27.332 142.518 26.036 143.262 24.932C144.006 23.828 145.05 22.988 146.394 22.412C147.738 21.812 149.274 21.512 151.002 21.512C153.594 21.512 155.694 22.148 157.302 23.42C158.934 24.668 159.834 26.42 160.002 28.676H154.458C154.41 27.812 154.038 27.104 153.342 26.552C152.67 25.976 151.77 25.688 150.642 25.688C149.658 25.688 148.866 25.94 148.266 26.444C147.69 26.948 147.402 27.68 147.402 28.64C147.402 29.312 147.618 29.876 148.05 30.332C148.506 30.764 149.058 31.124 149.706 31.412C150.378 31.676 151.314 31.988 152.514 32.348C154.146 32.828 155.478 33.308 156.51 33.788C157.542 34.268 158.43 34.988 159.174 35.948C159.918 36.908 160.29 38.168 160.29 39.728C160.29 41.072 159.942 42.32 159.246 43.472C158.55 44.624 157.53 45.548 156.186 46.244C154.842 46.916 153.246 47.252 151.398 47.252ZM183.2 21.872V25.94H176.504V47H171.464V25.94H164.768V21.872H183.2ZM193.357 25.94V32.24H201.817V36.236H193.357V42.896H202.897V47H188.317V21.836H202.897V25.94H193.357ZM236.313 21.872V47H231.273V30.656L224.541 47H220.725L213.957 30.656V47H208.917V21.872H214.641L222.633 40.556L230.625 21.872H236.313ZM258.144 42.212H248.136L246.48 47H241.188L250.224 21.836H256.092L265.128 47H259.8L258.144 42.212ZM256.776 38.18L253.14 27.668L249.504 38.18H256.776ZM295.372 42.212H285.364L283.708 47H278.416L287.452 21.836H293.32L302.356 47H297.028L295.372 42.212ZM294.004 38.18L290.368 27.668L286.732 38.18H294.004ZM328.665 47H323.625L312.213 29.756V47H307.173V21.836H312.213L323.625 39.116V21.836H328.665V47ZM346.75 47.252C344.398 47.252 342.238 46.7 340.27 45.596C338.302 44.492 336.742 42.968 335.59 41.024C334.438 39.056 333.862 36.836 333.862 34.364C333.862 31.916 334.438 29.72 335.59 27.776C336.742 25.808 338.302 24.272 340.27 23.168C342.238 22.064 344.398 21.512 346.75 21.512C349.126 21.512 351.286 22.064 353.23 23.168C355.198 24.272 356.746 25.808 357.874 27.776C359.026 29.72 359.602 31.916 359.602 34.364C359.602 36.836 359.026 39.056 357.874 41.024C356.746 42.968 355.198 44.492 353.23 45.596C351.262 46.7 349.102 47.252 346.75 47.252ZM346.75 42.752C348.262 42.752 349.594 42.416 350.746 41.744C351.898 41.048 352.798 40.064 353.446 38.792C354.094 37.52 354.418 36.044 354.418 34.364C354.418 32.684 354.094 31.22 353.446 29.972C352.798 28.7 351.898 27.728 350.746 27.056C349.594 26.384 348.262 26.048 346.75 26.048C345.238 26.048 343.894 26.384 342.718 27.056C341.566 27.728 340.666 28.7 340.018 29.972C339.37 31.22 339.046 32.684 339.046 34.364C339.046 36.044 339.37 37.52 340.018 38.792C340.666 40.064 341.566 41.048 342.718 41.744C343.894 42.416 345.238 42.752 346.75 42.752ZM346.75 17.408L341.386 20.432V16.76L346.75 13.844L352.078 16.76V20.432L346.75 17.408ZM386.283 47H381.243L369.831 29.756V47H364.791V21.836H369.831L381.243 39.116V21.836H386.283V47ZM397.744 21.872V47H392.704V21.872H397.744ZM431.56 21.872V47H426.52V30.656L419.788 47H415.972L409.204 30.656V47H404.164V21.872H409.888L417.88 40.556L425.872 21.872H431.56ZM449.647 47.252C447.295 47.252 445.135 46.7 443.167 45.596C441.199 44.492 439.639 42.968 438.487 41.024C437.335 39.056 436.759 36.836 436.759 34.364C436.759 31.916 437.335 29.72 438.487 27.776C439.639 25.808 441.199 24.272 443.167 23.168C445.135 22.064 447.295 21.512 449.647 21.512C452.023 21.512 454.183 22.064 456.127 23.168C458.095 24.272 459.643 25.808 460.771 27.776C461.923 29.72 462.499 31.916 462.499 34.364C462.499 36.836 461.923 39.056 460.771 41.024C459.643 42.968 458.095 44.492 456.127 45.596C454.159 46.7 451.999 47.252 449.647 47.252ZM449.647 42.752C451.159 42.752 452.491 42.416 453.643 41.744C454.795 41.048 455.695 40.064 456.343 38.792C456.991 37.52 457.315 36.044 457.315 34.364C457.315 32.684 456.991 31.22 456.343 29.972C455.695 28.7 454.795 27.728 453.643 27.056C452.491 26.384 451.159 26.048 449.647 26.048C448.135 26.048 446.791 26.384 445.615 27.056C444.463 27.728 443.563 28.7 442.915 29.972C442.267 31.22 441.943 32.684 441.943 34.364C441.943 36.044 442.267 37.52 442.915 38.792C443.563 40.064 444.463 41.048 445.615 41.744C446.791 42.416 448.135 42.752 449.647 42.752ZM486.49 21.872C489.13 21.872 491.446 22.388 493.438 23.42C495.454 24.452 497.002 25.928 498.082 27.848C499.186 29.744 499.738 31.952 499.738 34.472C499.738 36.992 499.186 39.2 498.082 41.096C497.002 42.968 495.454 44.42 493.438 45.452C491.446 46.484 489.13 47 486.49 47H477.706V21.872H486.49ZM486.31 42.716C488.95 42.716 490.99 41.996 492.43 40.556C493.87 39.116 494.59 37.088 494.59 34.472C494.59 31.856 493.87 29.816 492.43 28.352C490.99 26.864 488.95 26.12 486.31 26.12H482.746V42.716H486.31ZM509.991 25.94V32.24H518.451V36.236H509.991V42.896H519.531V47H504.951V21.836H519.531V25.94H509.991ZM544.353 21.872C546.993 21.872 549.309 22.388 551.301 23.42C553.317 24.452 554.865 25.928 555.945 27.848C557.049 29.744 557.601 31.952 557.601 34.472C557.601 36.992 557.049 39.2 555.945 41.096C554.865 42.968 553.317 44.42 551.301 45.452C549.309 46.484 546.993 47 544.353 47H535.569V21.872H544.353ZM544.173 42.716C546.813 42.716 548.853 41.996 550.293 40.556C551.733 39.116 552.453 37.088 552.453 34.472C552.453 31.856 551.733 29.816 550.293 28.352C548.853 26.864 546.813 26.12 544.173 26.12H540.609V42.716H544.173ZM567.854 25.94V32.24H576.314V36.236H567.854V42.896H577.394V47H562.814V21.836H577.394V25.94H567.854ZM604.906 47H599.866L588.454 29.756V47H583.414V21.836H588.454L599.866 39.116V21.836H604.906V47ZM616.295 21.872V37.424C616.295 39.128 616.739 40.436 617.627 41.348C618.515 42.236 619.763 42.68 621.371 42.68C623.003 42.68 624.263 42.236 625.151 41.348C626.039 40.436 626.483 39.128 626.483 37.424V21.872H631.559V37.388C631.559 39.524 631.091 41.336 630.155 42.824C629.243 44.288 628.007 45.392 626.447 46.136C624.911 46.88 623.195 47.252 621.299 47.252C619.427 47.252 617.723 46.88 616.187 46.136C614.675 45.392 613.475 44.288 612.587 42.824C611.699 41.336 611.255 39.524 611.255 37.388V21.872H616.295ZM625.295 16.652L617.015 20.432V16.832L625.295 12.548V16.652ZM659.36 47H654.32L642.908 29.756V47H637.868V21.836H642.908L654.32 39.116V21.836H659.36V47ZM664.557 34.4C664.557 31.928 665.109 29.72 666.213 27.776C667.341 25.808 668.865 24.284 670.785 23.204C672.729 22.1 674.901 21.548 677.301 21.548C680.109 21.548 682.569 22.268 684.681 23.708C686.793 25.148 688.269 27.14 689.109 29.684H683.313C682.737 28.484 681.921 27.584 680.865 26.984C679.833 26.384 678.633 26.084 677.265 26.084C675.801 26.084 674.493 26.432 673.341 27.128C672.213 27.8 671.325 28.76 670.677 30.008C670.053 31.256 669.741 32.72 669.741 34.4C669.741 36.056 670.053 37.52 670.677 38.792C671.325 40.04 672.213 41.012 673.341 41.708C674.493 42.38 675.801 42.716 677.265 42.716C678.633 42.716 679.833 42.416 680.865 41.816C681.921 41.192 682.737 40.28 683.313 39.08H689.109C688.269 41.648 686.793 43.652 684.681 45.092C682.593 46.508 680.133 47.216 677.301 47.216C674.901 47.216 672.729 46.676 670.785 45.596C668.865 44.492 667.341 42.968 666.213 41.024C665.109 39.08 664.557 36.872 664.557 34.4ZM699.894 21.872V47H694.854V21.872H699.894ZM721.721 42.212H711.713L710.057 47H704.765L713.801 21.836H719.669L728.705 47H723.377L721.721 42.212ZM720.353 38.18L716.717 27.668L713.081 38.18H720.353Z" fill="#DF4B6F"/>
<path d="M441.992 436.132H391.827L383.526 470H357L402.293 292H431.707L477 470H450.293L441.992 436.132ZM435.135 407.611L416.91 333.253L398.684 407.611H435.135Z" fill="#DF4B6F"/>
<path d="M545.843 292C560.222 292 572.837 295.655 583.686 302.966C594.667 310.276 603.098 320.732 608.98 334.332C614.993 347.763 618 363.404 618 381.255C618 399.106 614.993 414.747 608.98 428.178C603.098 441.438 594.667 451.724 583.686 459.034C572.837 466.345 560.222 470 545.843 470H498V292H545.843ZM544.863 439.653C559.242 439.653 570.353 434.553 578.196 424.352C586.039 414.152 589.961 399.786 589.961 381.255C589.961 362.724 586.039 348.273 578.196 337.903C570.353 327.362 559.242 322.092 544.863 322.092H525.451V439.653H544.863Z" fill="#DF4B6F"/>
<path d="M332.447 341.485H296.075C296.47 339.683 295.363 334.085 287.772 326.104C280.919 321.531 264.288 315.628 252.586 328.598C248.369 335.111 244.441 350.464 262.47 359.776L302.796 374.325L316.238 380.977C328.098 389.568 345.968 415.646 322.563 451.231C315.183 460.93 290.302 477.503 249.818 466.196C238.221 462.87 214.822 449.152 214 420.884V418.39H249.818C249.159 425.873 253.218 441.004 274.725 441.669L281.051 441.254L286.191 440.007L292.516 436.681C297.92 431.415 305.484 417.725 292.516 405.087L288.958 402.593L285.795 400.93L285.005 400.515L275.516 396.773L262.47 392.616L247.051 387.212L239.934 384.302L234.004 380.977C231.632 379.314 226.018 374.824 222.539 370.168C221.221 368.644 218.269 364.432 217.004 359.776L215.818 355.619C215.159 353.124 213.999 346.141 214.632 338.159L215.423 331.508L218.19 322.362C220.167 316.82 228.706 303.822 247.051 296.173C256.012 292.847 279.233 288.358 300.423 297.004C306.617 298.944 320.982 307.064 328.889 324.025L332.447 341.485Z" fill="#DF4B6F"/>
<path d="M251.819 497.004H247.575C247.621 496.822 247.492 496.256 246.607 495.449C245.807 494.986 243.867 494.389 242.502 495.701C242.01 496.36 241.552 497.912 243.655 498.854L248.359 500.325L249.928 500.998C251.311 501.866 253.396 504.504 250.666 508.102C249.805 509.083 246.902 510.759 242.179 509.615C240.826 509.279 238.096 507.892 238 505.033V504.781H242.179C242.102 505.538 242.575 507.068 245.085 507.135L245.823 507.093L246.422 506.967L247.16 506.631C247.791 506.098 248.673 504.714 247.16 503.436L246.745 503.184L246.376 503.015L246.284 502.973L245.177 502.595L243.655 502.175L241.856 501.628L241.026 501.334L240.334 500.998C240.057 500.829 239.402 500.375 238.996 499.905C238.842 499.751 238.498 499.325 238.35 498.854L238.212 498.433C238.135 498.181 238 497.475 238.074 496.668L238.166 495.995L238.489 495.07C238.719 494.51 239.716 493.195 241.856 492.422C242.901 492.086 245.61 491.632 248.083 492.506C248.805 492.702 250.481 493.523 251.404 495.239L251.819 497.004Z" fill="#DF4B6F"/>
<path d="M627 478H207V483H627V478Z" fill="#DF4B6F"/>
<path d="M351 510V492H354.851L360.909 502.856H360.985V492H365V510H361.225L355.091 499.179H355.009V510H351Z" fill="#DF4B6F"/>
<path d="M454 510V492H460.406C462.891 492 464.779 492.404 466.072 493.212C467.365 494.019 468.008 495.166 468 496.651V505.055C468 506.739 467.314 507.982 465.943 508.785C464.571 509.588 462.599 509.988 460.024 509.986L454 510ZM458.326 494.427V507.573H460.295C461.513 507.573 462.377 507.391 462.887 507.027C463.462 506.527 463.732 505.925 463.651 505.321V496.651C463.71 496.071 463.457 495.496 462.928 495.008C462.446 494.621 461.568 494.427 460.295 494.427H458.326Z" fill="#DF4B6F"/>
<path d="M498 510V492H504.406C506.891 492 508.779 492.404 510.072 493.212C511.365 494.019 512.008 495.166 512 496.651V505.055C512 506.739 511.314 507.982 509.943 508.785C508.571 509.588 506.599 509.988 504.024 509.986L498 510ZM502.326 494.427V507.573H504.295C505.513 507.573 506.377 507.391 506.887 507.027C507.462 506.527 507.732 505.925 507.651 505.321V496.651C507.71 496.071 507.457 495.496 506.928 495.008C506.446 494.621 505.568 494.427 504.295 494.427H502.326Z" fill="#DF4B6F"/>
<path d="M272 510V492H286V494.427H276.696V499.711H284.8V502.138H276.696V507.419H286V510H272Z" fill="#DF4B6F"/>
<path d="M471 510V492H485V494.427H475.696V499.711H483.8V502.138H475.696V507.419H485V510H471Z" fill="#DF4B6F"/>
<path d="M334 510L339.525 492H342.475L348 510H344.458L343.414 506.13H338.601L337.557 510H334ZM342.754 503.697L341.017 497.193H340.949L339.212 503.714L342.754 503.697Z" fill="#DF4B6F"/>
<path d="M306 510L311.515 492H314.465L320 510H316.464L315.421 506.13H310.617L309.579 510H306ZM314.739 503.697L313.005 497.193H312.938L311.203 503.714L314.739 503.697Z" fill="#DF4B6F"/>
<path d="M607 510L612.515 492H615.465L621 510H617.464L616.421 506.13H611.617L610.579 510H607ZM615.739 503.697L614.005 497.193H613.938L612.203 503.714L615.739 503.697Z" fill="#DF4B6F"/>
<path d="M515 510V492H529V494.427H519.69V499.711H527.772V502.138H519.69V507.419H528.968V510H515Z" fill="#DF4B6F"/>
<path d="M385 510V492H388.851L394.909 502.856H394.985V492H399V510H395.225L389.091 499.179H389.009V510H385Z" fill="#DF4B6F"/>
<path d="M532 510V492H535.851L541.909 502.856H541.985V492H546V510H542.225L536.091 499.179H536.009V510H532Z" fill="#DF4B6F"/>
<path d="M409 510V492H411.98L415.968 501.529H416.027L419.99 492H423V510H419.897V499.053H419.838L416.765 506.789H415.214L412.17 499.053H412.107V510H409Z" fill="#DF4B6F"/>
<path d="M269 492V494.914H263.914V510H260.086V494.914H255V492H269Z" fill="#DF4B6F"/>
<path d="M289 510V492H291.98L295.968 501.529H296.027L299.99 492H303V510H299.897V499.053H299.838L296.765 506.789H295.214L292.17 499.053H292.107V510H289Z" fill="#DF4B6F"/>
<path d="M231 510V492H235V510H231Z" fill="#DF4B6F"/>
<path d="M402 510V492H406V510H402Z" fill="#DF4B6F"/>
<path d="M600 510V492H604V510H600Z" fill="#DF4B6F"/>
<path d="M596.999 504.795V505.891C597.004 506.424 596.824 506.953 596.471 507.444C596.123 507.928 595.627 508.371 595.008 508.75C594.386 509.132 593.644 509.44 592.822 509.656C591.979 509.884 591.061 510.001 590.132 510C589.286 509.999 588.444 509.932 587.629 509.8C586.788 509.672 586.006 509.436 585.338 509.111C584.631 508.759 584.06 508.322 583.663 507.83C583.186 507.201 582.961 506.517 583.005 505.829V496.081C582.997 495.528 583.171 494.98 583.517 494.465C583.839 493.981 584.329 493.541 584.956 493.174C585.592 492.803 586.35 492.511 587.182 492.316C588.092 492.103 589.064 491.996 590.044 492.003C590.965 491.983 591.883 492.077 592.738 492.279C593.593 492.48 594.367 492.785 595.008 493.174C595.64 493.565 596.137 494.025 596.471 494.527C596.833 495.076 597.013 495.661 596.999 496.25V497.242H592.652V496.398C592.666 495.932 592.412 495.477 591.929 495.106C591.703 494.93 591.407 494.788 591.068 494.693C590.729 494.598 590.355 494.551 589.979 494.558C588.904 494.558 588.216 494.751 587.84 495.14C587.456 495.601 587.273 496.11 587.306 496.622V505.674C587.283 506.129 587.487 506.578 587.893 506.965C588.128 507.15 588.442 507.296 588.802 507.388C589.163 507.48 589.559 507.515 589.95 507.489C590.259 507.486 590.566 507.456 590.86 507.399C591.192 507.339 591.502 507.242 591.771 507.114C592.053 506.962 592.272 506.775 592.411 506.566C592.594 506.289 592.68 505.994 592.664 505.698V504.826L596.999 504.795Z" fill="#DF4B6F"/>
<path d="M566 510V492H569.851L575.909 502.856H575.985V492H580V510H576.225L570.091 499.179H570.009V510H566Z" fill="#DF4B6F"/>
<path d="M552.475 491.717V502.92C552.475 504.148 552.781 505.09 553.394 505.747C554.006 506.387 554.866 506.706 555.975 506.706C557.1 506.706 557.969 506.387 558.582 505.747C559.194 505.09 559.5 504.148 559.5 502.92V491.717H563V502.894C563 504.433 562.677 505.738 562.032 506.81C561.403 507.865 560.551 508.66 559.475 509.196C558.416 509.732 557.233 510 555.926 510C554.635 510 553.46 509.732 552.401 509.196C551.358 508.66 550.531 507.865 549.918 506.81C549.306 505.738 549 504.433 549 502.894V491.717H552.475ZM558.681 487.956L552.972 490.679V488.086L558.681 485V487.956Z" fill="#DF4B6F"/>
<path d="M375.01 510C373.731 510 372.556 509.603 371.485 508.81C370.415 508.017 369.566 506.922 368.94 505.526C368.313 504.112 368 502.517 368 500.741C368 498.983 368.313 497.405 368.94 496.009C369.566 494.595 370.415 493.491 371.485 492.698C372.556 491.905 373.731 491.509 375.01 491.509C376.302 491.509 377.477 491.905 378.534 492.698C379.605 493.491 380.447 494.595 381.06 496.009C381.687 497.405 382 498.983 382 500.741C382 502.517 381.687 504.112 381.06 505.526C380.447 506.922 379.605 508.017 378.534 508.81C377.464 509.603 376.289 510 375.01 510ZM375.01 506.767C375.832 506.767 376.557 506.526 377.183 506.043C377.81 505.543 378.299 504.836 378.652 503.922C379.004 503.009 379.18 501.948 379.18 500.741C379.18 499.534 379.004 498.483 378.652 497.586C378.299 496.672 377.81 495.974 377.183 495.491C376.557 495.009 375.832 494.767 375.01 494.767C374.187 494.767 373.456 495.009 372.817 495.491C372.19 495.974 371.701 496.672 371.348 497.586C370.996 498.483 370.82 499.534 370.82 500.741C370.82 501.948 370.996 503.009 371.348 503.922C371.701 504.836 372.19 505.543 372.817 506.043C373.456 506.526 374.187 506.767 375.01 506.767ZM375.01 488.56L372.092 490.733V488.095L375.01 486L377.908 488.095V490.733L375.01 488.56Z" fill="#DF4B6F"/>
<path d="M433.01 509.16C431.731 509.16 430.556 508.792 429.485 508.056C428.415 507.32 427.566 506.304 426.94 505.008C426.313 503.696 426 502.216 426 500.568C426 498.936 426.313 497.472 426.94 496.176C427.566 494.864 428.415 493.84 429.485 493.104C430.556 492.368 431.731 492 433.01 492C434.302 492 435.477 492.368 436.534 493.104C437.605 493.84 438.447 494.864 439.06 496.176C439.687 497.472 440 498.936 440 500.568C440 502.216 439.687 503.696 439.06 505.008C438.447 506.304 437.605 507.32 436.534 508.056C435.464 508.792 434.289 509.16 433.01 509.16ZM433.01 506.16C433.832 506.16 434.557 505.936 435.183 505.488C435.81 505.024 436.299 504.368 436.652 503.52C437.004 502.672 437.18 501.688 437.18 500.568C437.18 499.448 437.004 498.472 436.652 497.64C436.299 496.792 435.81 496.144 435.183 495.696C434.557 495.248 433.832 495.024 433.01 495.024C432.187 495.024 431.456 495.248 430.817 495.696C430.19 496.144 429.701 496.792 429.348 497.64C428.996 498.472 428.82 499.448 428.82 500.568C428.82 501.688 428.996 502.672 429.348 503.52C429.701 504.368 430.19 505.024 430.817 505.488C431.456 505.936 432.187 506.16 433.01 506.16Z" fill="#DF4B6F"/>
<path d="M227.819 497.004H223.575C223.621 496.822 223.492 496.256 222.607 495.449C221.807 494.986 219.867 494.389 218.502 495.701C218.01 496.36 217.552 497.912 219.655 498.854L224.359 500.325L225.928 500.998C227.311 501.866 229.396 504.504 226.666 508.102C225.805 509.083 222.902 510.759 218.179 509.615C216.826 509.279 214.096 507.892 214 505.033V504.781H218.179C218.102 505.538 218.575 507.068 221.085 507.135L221.823 507.093L222.422 506.967L223.16 506.631C223.791 506.098 224.673 504.714 223.16 503.436L222.745 503.184L222.376 503.015L222.284 502.973L221.177 502.595L219.655 502.175L217.856 501.628L217.026 501.334L216.334 500.998C216.057 500.829 215.402 500.375 214.996 499.905C214.842 499.751 214.498 499.325 214.35 498.854L214.212 498.433C214.135 498.181 214 497.475 214.074 496.668L214.166 495.995L214.489 495.07C214.719 494.51 215.716 493.195 217.856 492.422C218.901 492.086 221.61 491.632 224.083 492.506C224.805 492.702 226.481 493.523 227.404 495.239L227.819 497.004Z" fill="#DF4B6F"/>
</g>
<defs>
<clipPath id="clip0">
<rect width="834" height="1112" fill="white" transform="matrix(-1 0 0 1 834 0)"/>
</clipPath>
</defs>
</svg>
