<?xml version="1.0" encoding="UTF-8" standalone="no"?>
<!-- Created with Inkscape (http://www.inkscape.org/) -->

<svg
   xmlns:dc="http://purl.org/dc/elements/1.1/"
   xmlns:cc="http://creativecommons.org/ns#"
   xmlns:rdf="http://www.w3.org/1999/02/22-rdf-syntax-ns#"
   xmlns:svg="http://www.w3.org/2000/svg"
   xmlns="http://www.w3.org/2000/svg"
   xmlns:sodipodi="http://sodipodi.sourceforge.net/DTD/sodipodi-0.dtd"
   xmlns:inkscape="http://www.inkscape.org/namespaces/inkscape"
   width="235"
   height="40"
   viewBox="0 0 62.177082 10.583333"
   version="1.1"
   id="svg8"
   inkscape:version="0.92.4 (5da689c313, 2019-01-14)"
   sodipodi:docname="omnitech-logo.svg">
  <defs
     id="defs2" />
  <sodipodi:namedview
     id="base"
     pagecolor="#ffffff"
     bordercolor="#666666"
     borderopacity="1.0"
     inkscape:pageopacity="0.0"
     inkscape:pageshadow="2"
     inkscape:zoom="1.979899"
     inkscape:cx="165.22131"
     inkscape:cy="6.7335855"
     inkscape:document-units="px"
     inkscape:current-layer="layer1"
     showgrid="false"
     units="px"
     inkscape:window-width="1366"
     inkscape:window-height="705"
     inkscape:window-x="-8"
     inkscape:window-y="-8"
     inkscape:window-maximized="1" />
  <metadata
     id="metadata5">
    <rdf:RDF>
      <cc:Work
         rdf:about="">
        <dc:format>image/svg+xml</dc:format>
        <dc:type
           rdf:resource="http://purl.org/dc/dcmitype/StillImage" />
        <dc:title></dc:title>
      </cc:Work>
    </rdf:RDF>
  </metadata>
  <g
     inkscape:label="Camada 1"
     inkscape:groupmode="layer"
     id="layer1"
     transform="translate(0,-286.41665)">
    <path
       inkscape:connector-curvature="0"
       id="path821"
       style="font-style:normal;font-variant:normal;font-weight:normal;font-stretch:normal;font-size:11.73523808px;line-height:1.25;font-family:Nilland-Black;-inkscape-font-specification:Nilland-Black;letter-spacing:0px;word-spacing:0px;fill:#000000;fill-opacity:1;stroke:none;stroke-width:0.29338095"
       d="m 8.837894,292.54751 q 0,-1.91153 -1.2524289,-3.18199 -1.2524288,-1.27047 -3.1665182,-1.27047 -1.9140892,0 -3.1665181,1.27047 Q 0,290.63598 0,292.54751 q 0,1.91153 1.2524288,3.182 1.2524289,1.27046 3.1665181,1.27046 1.9140894,0 3.1665182,-1.27046 1.2524289,-1.27047 1.2524289,-3.182 z m -1.417844,0 q 0,1.37537 -0.8507063,2.2612 -0.838891,0.87417 -2.1503968,0.87417 -1.2996902,0 -2.1503966,-0.88583 -0.8507063,-0.87417 -0.8507063,-2.24954 0,-1.37537 0.8507063,-2.24954 0.8507064,-0.88583 2.1503966,-0.88583 1.3115058,0 2.1503968,0.87418 0.8507063,0.89748 0.8507063,2.26119 z" />
    <path
       inkscape:connector-curvature="0"
       id="path823"
       style="font-style:normal;font-variant:normal;font-weight:normal;font-stretch:normal;font-size:11.73523808px;line-height:1.25;font-family:Nilland-Black;-inkscape-font-specification:Nilland-Black;letter-spacing:0px;word-spacing:0px;fill:#000000;fill-opacity:1;stroke:none;stroke-width:0.29338095"
       d="m 19.541883,296.88342 v -1.27047 h -1.004306 v -6.11922 h 1.004306 v -1.27046 H 16.84798 l -2.504858,6.02597 -2.528489,-6.02597 H 9.1325451 v 1.27046 h 1.0397519 v 6.49221 0.89748 h 2.268551 v -1.27047 h -0.957045 v -4.79047 l 2.481227,6.06094 h 0.638029 l 2.516674,-6.04929 v 5.15181 0.89748 z" />
    <path
       inkscape:connector-curvature="0"
       id="path825"
       style="font-style:normal;font-variant:normal;font-weight:normal;font-stretch:normal;font-size:11.73523808px;line-height:1.25;font-family:Nilland-Black;-inkscape-font-specification:Nilland-Black;letter-spacing:0px;word-spacing:0px;fill:#000000;fill-opacity:1;stroke:none;stroke-width:0.29338095"
       d="m 29.585495,289.49373 v -1.27046 h -2.351258 v 0.89748 5.24505 q -0.815261,-1.25882 -1.63052,-2.44769 -0.578954,-0.86252 -1.169722,-1.74835 -0.590769,-0.89748 -1.252429,-1.94649 h -2.481227 v 1.27046 h 1.075199 v 6.49221 0.89748 h 2.445781 v -1.27047 h -1.134276 v -5.0469 l 4.253532,6.42227 h 1.205168 v -7.49459 z" />
    <path
       inkscape:connector-curvature="0"
       id="path827"
       style="font-style:normal;font-variant:normal;font-weight:normal;font-stretch:normal;font-size:11.73523808px;line-height:1.25;font-family:Nilland-Black;-inkscape-font-specification:Nilland-Black;letter-spacing:0px;word-spacing:0px;fill:#000000;fill-opacity:1;stroke:none;stroke-width:0.29338095"
       d="m 32.23934,287.90857 v -1.49193 h -1.417844 v 1.49193 z m 1.027937,8.97485 v -1.27047 h -1.016122 v -6.4922 -0.89748 h -1.417844 v 0.89748 6.4922 h -1.004306 v 1.27047 z" />
    <path
       inkscape:connector-curvature="0"
       id="path829"
       style="font-style:normal;font-variant:normal;font-weight:normal;font-stretch:normal;font-size:11.73523808px;line-height:1.25;font-family:Nilland;-inkscape-font-specification:Nilland;letter-spacing:0px;word-spacing:0px;fill:#000000;fill-opacity:1;stroke:none;stroke-width:0.29338095"
       d="m 40.083816,290.15811 v -1.56186 h -6.380298 v 2.49431 h 0.543507 v -1.96981 h 2.315812 v 6.86519 h -1.098829 v 0.52449 h 1.760489 v -7.38968 h 2.315812 v 1.03736 z" />
    <path
       inkscape:connector-curvature="0"
       id="path831"
       style="font-style:normal;font-variant:normal;font-weight:normal;font-stretch:normal;font-size:11.73523808px;line-height:1.25;font-family:Nilland;-inkscape-font-specification:Nilland;letter-spacing:0px;word-spacing:0px;fill:#000000;fill-opacity:1;stroke:none;stroke-width:0.29338095"
       d="m 46.868973,296.51043 v -0.52449 h -0.543507 -4.194454 v -3.26359 h 3.331933 v -0.5245 h -3.331933 v -3.0771 h 4.194454 v 1.39868 h 0.531692 v -1.92318 h -6.415744 v 0.5245 h 1.027936 v 6.86519 0.52449 z" />
    <path
       inkscape:connector-curvature="0"
       id="path833"
       style="font-style:normal;font-variant:normal;font-weight:normal;font-stretch:normal;font-size:11.73523808px;line-height:1.25;font-family:Nilland;-inkscape-font-specification:Nilland;letter-spacing:0px;word-spacing:0px;fill:#000000;fill-opacity:1;stroke:none;stroke-width:0.29338095"
       d="m 54.792845,293.93454 -0.543507,-0.31471 q -0.472615,1.28213 -1.287875,1.87657 -0.803444,0.55947 -1.914089,0.55947 -1.476921,0 -2.410334,-0.99074 -0.94523,-1.00238 -0.94523,-2.51762 0,-1.53854 0.933413,-2.52927 0.921599,-0.97907 2.374889,-0.97907 1.016122,0 1.890459,0.55947 0.850706,0.53616 1.051567,1.52688 h 0.555323 v -1.82993 h -0.543507 v 0.59444 q -0.590768,-0.75762 -1.370583,-1.08398 -0.815259,-0.33801 -1.559628,-0.33801 -1.76049,0 -2.882949,1.14225 -1.110645,1.1306 -1.110645,2.93722 0,1.82995 1.110645,2.96054 1.098829,1.11895 2.894765,1.11895 1.252428,0 2.233104,-0.62941 0.968859,-0.62941 1.524182,-2.06305 z" />
    <path
       inkscape:connector-curvature="0"
       id="path835"
       style="font-style:normal;font-variant:normal;font-weight:normal;font-stretch:normal;font-size:11.73523808px;line-height:1.25;font-family:Nilland;-inkscape-font-specification:Nilland;letter-spacing:0px;word-spacing:0px;fill:#000000;fill-opacity:1;stroke:none;stroke-width:0.29338095"
       d="m 62.177087,289.12075 v -0.5245 h -2.670273 v 0.5245 h 1.039752 v 2.99551 h -4.3835 v -2.99551 -0.5245 H 54.52073 v 0.5245 h 0.980676 v 6.86519 h -0.968861 v 0.52449 h 1.630521 v -0.52449 -3.35683 h 4.3835 v 3.35683 H 59.51863 v 0.52449 h 1.689598 v -0.52449 -6.86519 z" />
  </g>
</svg>
