<svg width="622" height="36" viewBox="0 0 622 36" fill="none" xmlns="http://www.w3.org/2000/svg">
<path d="M9.56109 35.252C7.80909 35.252 6.22509 34.952 4.80909 34.352C3.41709 33.752 2.31309 32.888 1.49709 31.76C0.681093 30.632 0.261093 29.3 0.237093 27.764H5.63709C5.70909 28.796 6.06909 29.612 6.71709 30.212C7.38909 30.812 8.30109 31.112 9.45309 31.112C10.6291 31.112 11.5531 30.836 12.2251 30.284C12.8971 29.708 13.2331 28.964 13.2331 28.052C13.2331 27.308 13.0051 26.696 12.5491 26.216C12.0931 25.736 11.5171 25.364 10.8211 25.1C10.1491 24.812 9.21309 24.5 8.01309 24.164C6.38109 23.684 5.04909 23.216 4.01709 22.76C3.00909 22.28 2.13309 21.572 1.38909 20.636C0.669093 19.676 0.309093 18.404 0.309093 16.82C0.309093 15.332 0.681093 14.036 1.42509 12.932C2.16909 11.828 3.21309 10.988 4.55709 10.412C5.90109 9.812 7.43709 9.512 9.16509 9.512C11.7571 9.512 13.8571 10.148 15.4651 11.42C17.0971 12.668 17.9971 14.42 18.1651 16.676H12.6211C12.5731 15.812 12.2011 15.104 11.5051 14.552C10.8331 13.976 9.93309 13.688 8.80509 13.688C7.82109 13.688 7.02909 13.94 6.42909 14.444C5.85309 14.948 5.56509 15.68 5.56509 16.64C5.56509 17.312 5.78109 17.876 6.21309 18.332C6.66909 18.764 7.22109 19.124 7.86909 19.412C8.54109 19.676 9.47709 19.988 10.6771 20.348C12.3091 20.828 13.6411 21.308 14.6731 21.788C15.7051 22.268 16.5931 22.988 17.3371 23.948C18.0811 24.908 18.4531 26.168 18.4531 27.728C18.4531 29.072 18.1051 30.32 17.4091 31.472C16.7131 32.624 15.6931 33.548 14.3491 34.244C13.0051 34.916 11.4091 35.252 9.56109 35.252ZM29.3026 9.872V35H24.2626V9.872H29.3026ZM44.3981 35.252C42.6461 35.252 41.0621 34.952 39.6461 34.352C38.2541 33.752 37.1501 32.888 36.3341 31.76C35.5181 30.632 35.0981 29.3 35.0741 27.764H40.4741C40.5461 28.796 40.9061 29.612 41.5541 30.212C42.2261 30.812 43.1381 31.112 44.2901 31.112C45.4661 31.112 46.3901 30.836 47.0621 30.284C47.7341 29.708 48.0701 28.964 48.0701 28.052C48.0701 27.308 47.8421 26.696 47.3861 26.216C46.9301 25.736 46.3541 25.364 45.6581 25.1C44.9861 24.812 44.0501 24.5 42.8501 24.164C41.2181 23.684 39.8861 23.216 38.8541 22.76C37.8461 22.28 36.9701 21.572 36.2261 20.636C35.5061 19.676 35.1461 18.404 35.1461 16.82C35.1461 15.332 35.5181 14.036 36.2621 12.932C37.0061 11.828 38.0501 10.988 39.3941 10.412C40.7381 9.812 42.2741 9.512 44.0021 9.512C46.5941 9.512 48.6941 10.148 50.3021 11.42C51.9341 12.668 52.8341 14.42 53.0021 16.676H47.4581C47.4101 15.812 47.0381 15.104 46.3421 14.552C45.6701 13.976 44.7701 13.688 43.6421 13.688C42.6581 13.688 41.8661 13.94 41.2661 14.444C40.6901 14.948 40.4021 15.68 40.4021 16.64C40.4021 17.312 40.6181 17.876 41.0501 18.332C41.5061 18.764 42.0581 19.124 42.7061 19.412C43.3781 19.676 44.3141 19.988 45.5141 20.348C47.1461 20.828 48.4781 21.308 49.5101 21.788C50.5421 22.268 51.4301 22.988 52.1741 23.948C52.9181 24.908 53.2901 26.168 53.2901 27.728C53.2901 29.072 52.9421 30.32 52.2461 31.472C51.5501 32.624 50.5301 33.548 49.1861 34.244C47.8421 34.916 46.2461 35.252 44.3981 35.252ZM76.1996 9.872V13.94H69.5036V35H64.4636V13.94H57.7676V9.872H76.1996ZM86.357 13.94V20.24H94.817V24.236H86.357V30.896H95.897V35H81.317V9.836H95.897V13.94H86.357ZM129.313 9.872V35H124.273V18.656L117.541 35H113.725L106.957 18.656V35H101.917V9.872H107.641L115.633 28.556L123.625 9.872H129.313ZM151.144 30.212H141.136L139.48 35H134.188L143.224 9.836H149.092L158.128 35H152.8L151.144 30.212ZM149.776 26.18L146.14 15.668L142.504 26.18H149.776ZM188.372 30.212H178.364L176.708 35H171.416L180.452 9.836H186.32L195.356 35H190.028L188.372 30.212ZM187.004 26.18L183.368 15.668L179.732 26.18H187.004ZM221.665 35H216.625L205.213 17.756V35H200.173V9.836H205.213L216.625 27.116V9.836H221.665V35ZM239.75 35.252C237.398 35.252 235.238 34.7 233.27 33.596C231.302 32.492 229.742 30.968 228.59 29.024C227.438 27.056 226.862 24.836 226.862 22.364C226.862 19.916 227.438 17.72 228.59 15.776C229.742 13.808 231.302 12.272 233.27 11.168C235.238 10.064 237.398 9.512 239.75 9.512C242.126 9.512 244.286 10.064 246.23 11.168C248.198 12.272 249.746 13.808 250.874 15.776C252.026 17.72 252.602 19.916 252.602 22.364C252.602 24.836 252.026 27.056 250.874 29.024C249.746 30.968 248.198 32.492 246.23 33.596C244.262 34.7 242.102 35.252 239.75 35.252ZM239.75 30.752C241.262 30.752 242.594 30.416 243.746 29.744C244.898 29.048 245.798 28.064 246.446 26.792C247.094 25.52 247.418 24.044 247.418 22.364C247.418 20.684 247.094 19.22 246.446 17.972C245.798 16.7 244.898 15.728 243.746 15.056C242.594 14.384 241.262 14.048 239.75 14.048C238.238 14.048 236.894 14.384 235.718 15.056C234.566 15.728 233.666 16.7 233.018 17.972C232.37 19.22 232.046 20.684 232.046 22.364C232.046 24.044 232.37 25.52 233.018 26.792C233.666 28.064 234.566 29.048 235.718 29.744C236.894 30.416 238.238 30.752 239.75 30.752ZM239.75 5.408L234.386 8.432V4.76L239.75 1.844L245.078 4.76V8.432L239.75 5.408ZM279.283 35H274.243L262.831 17.756V35H257.791V9.836H262.831L274.243 27.116V9.836H279.283V35ZM290.744 9.872V35H285.704V9.872H290.744ZM324.56 9.872V35H319.52V18.656L312.788 35H308.972L302.204 18.656V35H297.164V9.872H302.888L310.88 28.556L318.872 9.872H324.56ZM342.647 35.252C340.295 35.252 338.135 34.7 336.167 33.596C334.199 32.492 332.639 30.968 331.487 29.024C330.335 27.056 329.759 24.836 329.759 22.364C329.759 19.916 330.335 17.72 331.487 15.776C332.639 13.808 334.199 12.272 336.167 11.168C338.135 10.064 340.295 9.512 342.647 9.512C345.023 9.512 347.183 10.064 349.127 11.168C351.095 12.272 352.643 13.808 353.771 15.776C354.923 17.72 355.499 19.916 355.499 22.364C355.499 24.836 354.923 27.056 353.771 29.024C352.643 30.968 351.095 32.492 349.127 33.596C347.159 34.7 344.999 35.252 342.647 35.252ZM342.647 30.752C344.159 30.752 345.491 30.416 346.643 29.744C347.795 29.048 348.695 28.064 349.343 26.792C349.991 25.52 350.315 24.044 350.315 22.364C350.315 20.684 349.991 19.22 349.343 17.972C348.695 16.7 347.795 15.728 346.643 15.056C345.491 14.384 344.159 14.048 342.647 14.048C341.135 14.048 339.791 14.384 338.615 15.056C337.463 15.728 336.563 16.7 335.915 17.972C335.267 19.22 334.943 20.684 334.943 22.364C334.943 24.044 335.267 25.52 335.915 26.792C336.563 28.064 337.463 29.048 338.615 29.744C339.791 30.416 341.135 30.752 342.647 30.752ZM379.49 9.872C382.13 9.872 384.446 10.388 386.438 11.42C388.454 12.452 390.002 13.928 391.082 15.848C392.186 17.744 392.738 19.952 392.738 22.472C392.738 24.992 392.186 27.2 391.082 29.096C390.002 30.968 388.454 32.42 386.438 33.452C384.446 34.484 382.13 35 379.49 35H370.706V9.872H379.49ZM379.31 30.716C381.95 30.716 383.99 29.996 385.43 28.556C386.87 27.116 387.59 25.088 387.59 22.472C387.59 19.856 386.87 17.816 385.43 16.352C383.99 14.864 381.95 14.12 379.31 14.12H375.746V30.716H379.31ZM402.991 13.94V20.24H411.451V24.236H402.991V30.896H412.531V35H397.951V9.836H412.531V13.94H402.991ZM437.353 9.872C439.993 9.872 442.309 10.388 444.301 11.42C446.317 12.452 447.865 13.928 448.945 15.848C450.049 17.744 450.601 19.952 450.601 22.472C450.601 24.992 450.049 27.2 448.945 29.096C447.865 30.968 446.317 32.42 444.301 33.452C442.309 34.484 439.993 35 437.353 35H428.569V9.872H437.353ZM437.173 30.716C439.813 30.716 441.853 29.996 443.293 28.556C444.733 27.116 445.453 25.088 445.453 22.472C445.453 19.856 444.733 17.816 443.293 16.352C441.853 14.864 439.813 14.12 437.173 14.12H433.609V30.716H437.173ZM460.854 13.94V20.24H469.314V24.236H460.854V30.896H470.394V35H455.814V9.836H470.394V13.94H460.854ZM497.906 35H492.866L481.454 17.756V35H476.414V9.836H481.454L492.866 27.116V9.836H497.906V35ZM509.295 9.872V25.424C509.295 27.128 509.739 28.436 510.627 29.348C511.515 30.236 512.763 30.68 514.371 30.68C516.003 30.68 517.263 30.236 518.151 29.348C519.039 28.436 519.483 27.128 519.483 25.424V9.872H524.559V25.388C524.559 27.524 524.091 29.336 523.155 30.824C522.243 32.288 521.007 33.392 519.447 34.136C517.911 34.88 516.195 35.252 514.299 35.252C512.427 35.252 510.723 34.88 509.187 34.136C507.675 33.392 506.475 32.288 505.587 30.824C504.699 29.336 504.255 27.524 504.255 25.388V9.872H509.295ZM518.295 4.652L510.015 8.432V4.832L518.295 0.547999V4.652ZM552.36 35H547.32L535.908 17.756V35H530.868V9.836H535.908L547.32 27.116V9.836H552.36V35ZM557.557 22.4C557.557 19.928 558.109 17.72 559.213 15.776C560.341 13.808 561.865 12.284 563.785 11.204C565.729 10.1 567.901 9.548 570.301 9.548C573.109 9.548 575.569 10.268 577.681 11.708C579.793 13.148 581.269 15.14 582.109 17.684H576.313C575.737 16.484 574.921 15.584 573.865 14.984C572.833 14.384 571.633 14.084 570.265 14.084C568.801 14.084 567.493 14.432 566.341 15.128C565.213 15.8 564.325 16.76 563.677 18.008C563.053 19.256 562.741 20.72 562.741 22.4C562.741 24.056 563.053 25.52 563.677 26.792C564.325 28.04 565.213 29.012 566.341 29.708C567.493 30.38 568.801 30.716 570.265 30.716C571.633 30.716 572.833 30.416 573.865 29.816C574.921 29.192 575.737 28.28 576.313 27.08H582.109C581.269 29.648 579.793 31.652 577.681 33.092C575.593 34.508 573.133 35.216 570.301 35.216C567.901 35.216 565.729 34.676 563.785 33.596C561.865 32.492 560.341 30.968 559.213 29.024C558.109 27.08 557.557 24.872 557.557 22.4ZM592.894 9.872V35H587.854V9.872H592.894ZM614.721 30.212H604.713L603.057 35H597.765L606.801 9.836H612.669L621.705 35H616.377L614.721 30.212ZM613.353 26.18L609.717 15.668L606.081 26.18H613.353Z" fill="#DF4B6F"/>
</svg>
