<svg width="43" height="17" viewBox="0 0 43 17" fill="none" xmlns="http://www.w3.org/2000/svg">
<path d="M12.4437 0.248V2.96H7.97966V17H4.61966V2.96H0.155657V0.248H12.4437ZM28.0712 5.432C28.0712 6.328 27.8552 7.168 27.4232 7.952C27.0072 8.736 26.3432 9.368 25.4312 9.848C24.5352 10.328 23.3992 10.568 22.0232 10.568H19.2152V17H15.8552V0.248H22.0232C23.3192 0.248 24.4232 0.472 25.3352 0.92C26.2472 1.368 26.9272 1.984 27.3752 2.768C27.8392 3.552 28.0712 4.44 28.0712 5.432ZM21.8792 7.856C22.8072 7.856 23.4952 7.648 23.9432 7.232C24.3912 6.8 24.6152 6.2 24.6152 5.432C24.6152 3.8 23.7032 2.984 21.8792 2.984H19.2152V7.856H21.8792ZM42.8168 0.248V2.96H38.3528V17H34.9928V2.96H30.5288V0.248H42.8168Z" fill="#DF4B6F"/>
</svg>
